<svg width="520" height="64" viewBox="0 0 520 64" xmlns="http://www.w3.org/2000/svg">
  <rect width="520" height="64" fill="#ffffff"></rect>

  <!-- Icoon -->
  <g transform="translate(12 18) scale(0.85)">
    <path d="M8 24 H30 M30 24 V10 M30 24 V38" stroke="#94A3B8" stroke-width="2.5" fill="none"></path>
    <path d="M30 10 H40 M30 24 H40 M30 38 H40" stroke="#94A3B8" stroke-width="2.5" fill="none"></path>

    <rect x="40" y="4" width="50" height="12" rx="3" fill="#E2E8F0"></rect>
    <rect x="40" y="18" width="65" height="12" rx="3" fill="#E2E8F0"></rect>
    <rect x="40" y="32" width="45" height="12" rx="3" fill="#E2E8F0"></rect>

    <rect x="40" y="4" width="36" height="12" rx="3" fill="#2563EB"></rect>
    <rect x="40" y="18" width="48" height="12" rx="3" fill="#3B82F6"></rect>
    <rect x="40" y="32" width="20" height="12" rx="3" fill="#60A5FA"></rect>

    <rect x="0" y="18" width="12" height="12" rx="3" fill="#2563EB"></rect>
  </g>

  <!-- Tekst maximaal voor deze hoogte -->
  <text x="110" y="50" font-family="Inter, Arial, sans-serif" font-size="36" font-weight="600">
    <tspan fill="#1E3A8A">voortgang</tspan><tspan fill="#2563EB">inzicht</tspan><tspan fill="#1E3A8A" font-size="22">.nl</tspan>
  </text>
</svg>